<svg xmlns="http://www.w3.org/2000/svg" version="1.1" xmlns:xlink="http://www.w3.org/1999/xlink" xmlns:svgjs="http://svgjs.com/svgjs" width="1440" height="560" preserveAspectRatio="none" viewBox="0 0 1440 560"><g mask="url(&quot;#SvgjsMask1000&quot;)" fill="none"><rect width="1440" height="560" x="0" y="0" fill="#1e3266"></rect><path d="M1464 560L0 560 L0 327.54Q83.57 291.12, 120 374.69Q124.25 306.94, 192 311.19Q233.34 280.53, 264 321.88Q304.81 242.69, 384 283.49Q469.61 249.1, 504 334.7Q570.43 281.13, 624 347.57Q643.41 294.98, 696 314.39Q722.58 268.97, 768 295.55Q823.63 279.19, 840 334.82Q865.62 288.44, 912 314.05Q959.96 242.01, 1032 289.98Q1110.09 248.07, 1152 326.16Q1228.08 282.24, 1272 358.32Q1274.99 289.31, 1344 292.31Q1410.7 239.01, 1464 305.71z" fill="#182f5d"></path><path d="M1512 560L0 560 L0 372.86Q84.08 336.94, 120 421.03Q144.64 325.67, 240 350.31Q310.42 300.73, 360 371.14Q430.74 321.88, 480 392.62Q555.07 347.69, 600 422.75Q608.94 359.69, 672 368.63Q699.7 324.33, 744 352.03Q798.02 334.05, 816 388.08Q887.64 339.72, 936 411.36Q988.27 391.63, 1008 443.91Q1012.46 376.37, 1080 380.82Q1127.94 308.76, 1200 356.7Q1256.67 341.38, 1272 398.05Q1348.32 354.37, 1392 430.69Q1412.22 330.91, 1512 351.14z" fill="#25467d"></path><path d="M1512 560L0 560 L0 472.69Q11.39 412.08, 72 423.47Q141.5 372.97, 192 442.46Q281.77 412.23, 312 502Q361.87 431.87, 432 481.74Q450.03 427.77, 504 445.8Q554.14 375.94, 624 426.09Q717.96 400.05, 744 494.02Q784.44 414.45, 864 454.89Q884.4 403.29, 936 423.69Q981.46 397.15, 1008 442.61Q1079.3 441.91, 1080 513.21Q1108.4 469.62, 1152 498.02Q1163.45 437.47, 1224 448.92Q1266.57 419.49, 1296 462.06Q1339.61 433.67, 1368 477.28Q1418.88 456.16, 1440 507.04Q1445.81 440.85, 1512 446.65z" fill="#356cb1"></path><path d="M1512 560L0 560 L0 583.69Q35.49 547.18, 72 582.67Q91.3 481.97, 192 501.27Q222.96 460.23, 264 491.19Q321.82 477.01, 336 534.83Q413.9 492.74, 456 570.64Q498.87 541.5, 528 584.37Q533.65 518.02, 600 523.68Q644.88 448.55, 720 493.43Q763.71 465.14, 792 508.85Q886.97 483.82, 912 578.78Q959.48 506.25, 1032 553.73Q1050.83 500.56, 1104 519.38Q1131.46 474.84, 1176 502.3Q1227.92 482.22, 1248 534.14Q1332.76 498.9, 1368 583.67Q1396.35 540.01, 1440 568.36Q1469.11 525.47, 1512 554.57z" fill="white"></path></g><defs><mask id="SvgjsMask1000"><rect width="1440" height="560" fill="#ffffff"></rect></mask></defs></svg>